<mxfile host="app.diagrams.net" modified="2023-05-24T21:17:09.651Z" agent="Mozilla/5.0 (Windows NT 10.0; Win64; x64) AppleWebKit/537.36 (KHTML, like Gecko) Chrome/113.0.0.0 Safari/537.36" etag="XPPfT59u1S3K7VL_m24r" version="21.2.9" type="github">
  <diagram name="Página-1" id="hhy6UR328KDZcOzRFmu9">
    <mxGraphModel dx="1232" dy="1114" grid="1" gridSize="10" guides="1" tooltips="1" connect="1" arrows="1" fold="1" page="1" pageScale="1" pageWidth="1169" pageHeight="827" math="0" shadow="0">
      <root>
        <mxCell id="0" />
        <mxCell id="1" parent="0" />
        <mxCell id="GyEElM--RYE2wgMvxhPA-7" value="" style="rounded=0;whiteSpace=wrap;html=1;" vertex="1" parent="1">
          <mxGeometry x="50" y="150" width="500" height="140" as="geometry" />
        </mxCell>
        <mxCell id="GyEElM--RYE2wgMvxhPA-1" value="" style="shape=mxgraph.signs.tech.telephone_3;html=1;pointerEvents=1;fillColor=#000000;strokeColor=none;verticalLabelPosition=bottom;verticalAlign=top;align=center;" vertex="1" parent="1">
          <mxGeometry x="70" y="180" width="50" height="70" as="geometry" />
        </mxCell>
        <mxCell id="GyEElM--RYE2wgMvxhPA-8" value="" style="rounded=0;whiteSpace=wrap;html=1;" vertex="1" parent="1">
          <mxGeometry x="50" y="344" width="600" height="140" as="geometry" />
        </mxCell>
        <mxCell id="GyEElM--RYE2wgMvxhPA-4" value="" style="shape=mxgraph.signs.tech.telephone_3;html=1;pointerEvents=1;fillColor=#000000;strokeColor=none;verticalLabelPosition=bottom;verticalAlign=top;align=center;" vertex="1" parent="1">
          <mxGeometry x="580" y="379" width="50" height="70" as="geometry" />
        </mxCell>
        <mxCell id="GyEElM--RYE2wgMvxhPA-9" value="" style="shape=flexArrow;endArrow=classic;html=1;rounded=0;endWidth=20;endSize=6.97;fillColor=#d5e8d4;strokeColor=#82b366;" edge="1" parent="1">
          <mxGeometry width="50" height="50" relative="1" as="geometry">
            <mxPoint x="120" y="210" as="sourcePoint" />
            <mxPoint x="180" y="210" as="targetPoint" />
            <Array as="points" />
          </mxGeometry>
        </mxCell>
        <mxCell id="GyEElM--RYE2wgMvxhPA-10" value="&lt;b&gt;Genesys Cloud Inbound&lt;/b&gt;" style="text;html=1;align=center;verticalAlign=middle;resizable=0;points=[];autosize=1;strokeColor=none;fillColor=none;" vertex="1" parent="1">
          <mxGeometry x="50" y="120" width="160" height="30" as="geometry" />
        </mxCell>
        <mxCell id="GyEElM--RYE2wgMvxhPA-11" value="&lt;b&gt;Genesys Cloud Outbound&lt;/b&gt;" style="text;html=1;align=center;verticalAlign=middle;resizable=0;points=[];autosize=1;strokeColor=none;fillColor=none;" vertex="1" parent="1">
          <mxGeometry x="50" y="314" width="170" height="30" as="geometry" />
        </mxCell>
        <mxCell id="GyEElM--RYE2wgMvxhPA-12" value="" style="shape=flexArrow;endArrow=classic;html=1;rounded=0;endWidth=20;endSize=6.97;fillColor=#d5e8d4;strokeColor=#82b366;" edge="1" parent="1">
          <mxGeometry width="50" height="50" relative="1" as="geometry">
            <mxPoint x="510" y="413" as="sourcePoint" />
            <mxPoint x="570" y="413" as="targetPoint" />
            <Array as="points" />
          </mxGeometry>
        </mxCell>
        <mxCell id="GyEElM--RYE2wgMvxhPA-15" style="edgeStyle=orthogonalEdgeStyle;rounded=0;orthogonalLoop=1;jettySize=auto;html=1;" edge="1" parent="1" source="GyEElM--RYE2wgMvxhPA-13" target="GyEElM--RYE2wgMvxhPA-14">
          <mxGeometry relative="1" as="geometry" />
        </mxCell>
        <mxCell id="GyEElM--RYE2wgMvxhPA-13" value="&lt;font style=&quot;font-size: 17px;&quot;&gt;IVR&lt;/font&gt;" style="rounded=1;whiteSpace=wrap;html=1;fillColor=#dae8fc;strokeColor=#6c8ebf;" vertex="1" parent="1">
          <mxGeometry x="200" y="185" width="120" height="60" as="geometry" />
        </mxCell>
        <mxCell id="GyEElM--RYE2wgMvxhPA-14" value="&lt;font style=&quot;font-size: 17px;&quot;&gt;Cola&amp;nbsp; Ejecutivos&lt;/font&gt;" style="rounded=1;whiteSpace=wrap;html=1;fillColor=#e1d5e7;strokeColor=#9673a6;" vertex="1" parent="1">
          <mxGeometry x="380" y="185" width="120" height="60" as="geometry" />
        </mxCell>
        <mxCell id="GyEElM--RYE2wgMvxhPA-19" style="edgeStyle=orthogonalEdgeStyle;rounded=0;orthogonalLoop=1;jettySize=auto;html=1;entryX=0;entryY=0.5;entryDx=0;entryDy=0;" edge="1" parent="1" source="GyEElM--RYE2wgMvxhPA-16" target="GyEElM--RYE2wgMvxhPA-17">
          <mxGeometry relative="1" as="geometry" />
        </mxCell>
        <mxCell id="GyEElM--RYE2wgMvxhPA-16" value="&lt;font style=&quot;font-size: 17px;&quot;&gt;Campaña&lt;/font&gt;" style="rounded=1;whiteSpace=wrap;html=1;fillColor=#dae8fc;strokeColor=#6c8ebf;" vertex="1" parent="1">
          <mxGeometry x="80" y="380" width="120" height="60" as="geometry" />
        </mxCell>
        <mxCell id="GyEElM--RYE2wgMvxhPA-21" style="edgeStyle=orthogonalEdgeStyle;rounded=0;orthogonalLoop=1;jettySize=auto;html=1;" edge="1" parent="1" source="GyEElM--RYE2wgMvxhPA-17" target="GyEElM--RYE2wgMvxhPA-20">
          <mxGeometry relative="1" as="geometry" />
        </mxCell>
        <mxCell id="GyEElM--RYE2wgMvxhPA-17" value="&lt;font style=&quot;font-size: 17px;&quot;&gt;Discador&lt;/font&gt;" style="rounded=1;whiteSpace=wrap;html=1;fillColor=#dae8fc;strokeColor=#6c8ebf;" vertex="1" parent="1">
          <mxGeometry x="230" y="380" width="120" height="60" as="geometry" />
        </mxCell>
        <mxCell id="GyEElM--RYE2wgMvxhPA-20" value="&lt;font style=&quot;font-size: 17px;&quot;&gt;Cola&amp;nbsp; Ejecutivos&lt;/font&gt;" style="rounded=1;whiteSpace=wrap;html=1;fillColor=#e1d5e7;strokeColor=#9673a6;" vertex="1" parent="1">
          <mxGeometry x="380" y="380" width="120" height="60" as="geometry" />
        </mxCell>
      </root>
    </mxGraphModel>
  </diagram>
</mxfile>
